<svg width="230" height="115" viewBox="0 0 230 115" fill="none" xmlns="http://www.w3.org/2000/svg">
<circle cx="201.031" cy="28.7187" r="26.7187" stroke="#FFF7F0" stroke-width="4"/>
<rect x="114.875" width="57.4375" height="57.4375" fill="#755CDE"/>
<rect x="172.312" y="57.4375" width="7.17968" height="7.17968" fill="#030303"/>
<rect x="197.441" y="57.4375" width="7.17968" height="7.17968" fill="#030303"/>
<rect x="222.57" y="57.4375" width="7.17968" height="7.17968" fill="#030303"/>
<rect x="172.312" y="82.5664" width="7.17968" height="7.17968" fill="#030303"/>
<rect x="197.441" y="82.5664" width="7.17968" height="7.17968" fill="#030303"/>
<rect x="222.57" y="82.5664" width="7.17968" height="7.17968" fill="#030303"/>
<rect x="172.312" y="107.695" width="7.17968" height="7.17968" fill="#030303"/>
<rect x="197.441" y="107.695" width="7.17968" height="7.17968" fill="#030303"/>
<rect x="222.57" y="107.695" width="7.17968" height="7.17968" fill="#030303"/>
<path fill-rule="evenodd" clip-rule="evenodd" d="M114.875 57.4375L172.312 114.875V57.4375H114.875Z" fill="#F39E9E"/>
<rect x="57.4375" y="57.4375" width="7.17968" height="7.17968" fill="#030303"/>
<rect x="82.5664" y="57.4375" width="7.17968" height="7.17968" fill="#030303"/>
<rect x="107.695" y="57.4375" width="7.17968" height="7.17968" fill="#030303"/>
<rect x="57.4375" y="100.516" width="7.17968" height="7.17968" fill="#030303"/>
<rect x="82.5664" y="100.516" width="7.17968" height="7.17968" fill="#030303"/>
<rect x="107.695" y="100.516" width="7.17968" height="7.17968" fill="#030303"/>
<rect x="57.4375" y="107.695" width="7.17968" height="7.17968" fill="#030303"/>
<rect x="82.5664" y="107.695" width="7.17968" height="7.17968" fill="#030303"/>
<rect x="107.695" y="107.695" width="7.17968" height="7.17968" fill="#030303"/>
<rect x="57.4375" width="7.17968" height="7.17968" fill="#030303"/>
<rect x="82.5664" width="7.17968" height="7.17968" fill="#030303"/>
<rect x="107.695" width="7.17968" height="7.17968" fill="#030303"/>
<rect x="57.4375" y="7.17969" width="7.17968" height="7.17968" fill="#030303"/>
<rect x="82.5664" y="7.17969" width="7.17968" height="7.17968" fill="#030303"/>
<rect x="107.695" y="7.17969" width="7.17968" height="7.17968" fill="#030303"/>
<rect x="57.4375" y="50.2578" width="7.17968" height="7.17968" fill="#030303"/>
<rect x="82.5664" y="50.2578" width="7.17968" height="7.17968" fill="#030303"/>
<rect x="107.695" y="50.2578" width="7.17968" height="7.17968" fill="#030303"/>
<path fill-rule="evenodd" clip-rule="evenodd" d="M0 57.4375L57.4375 114.875V57.4375H0Z" fill="#61C4B7"/>
<path fill-rule="evenodd" clip-rule="evenodd" d="M57.4375 0L3.05176e-05 57.4375V0H57.4375Z" fill="#FFF7F0"/>
</svg>
